<svg width="60" height="60" viewBox="0 0 60 60" fill="none" xmlns="http://www.w3.org/2000/svg">
<path d="M19 32.125V42.625H13.75V47.875H21.625V53.125H26.875V47.875H32.125V53.125H37.375V47.7411C42.541 47.0875 46.5625 42.7142 46.5625 37.375C46.5625 33.91 44.8563 30.8545 42.2575 28.9409C44.1741 26.9879 45.2485 24.3613 45.25 21.625C45.25 16.7477 41.8926 12.6711 37.375 11.4978V5.875H32.125V11.125H26.875V5.875H21.625V11.125H13.75V16.375H19V32.125ZM36.0625 42.625H24.25V32.125H36.0625C38.9579 32.125 41.3125 34.4796 41.3125 37.375C41.3125 40.2704 38.9579 42.625 36.0625 42.625ZM24.25 16.375H34.75C37.6454 16.375 40 18.7296 40 21.625C40 24.5204 37.6454 26.875 34.75 26.875H24.25V16.375Z" fill="url(#paint0_linear_34_665)"/>
<defs>
<linearGradient id="paint0_linear_34_665" x1="14" y1="12" x2="47" y2="59" gradientUnits="userSpaceOnUse">
<stop stop-color="#CC1399"/>
<stop offset="1" stop-color="#560BAD"/>
</linearGradient>
</defs>
</svg>
